<svg xmlns="http://www.w3.org/2000/svg" xmlns:xlink="http://www.w3.org/1999/xlink" version="1.1" x="0px" y="0px" viewBox="0 0 30 37.5" xml:space="preserve"><g transform="translate(-210 -260)"><g xmlns="http://www.w3.org/2000/svg" xmlns:xlink="http://www.w3.org/1999/xlink"><path d="M232,268c0-3.866-3.134-7-7-7s-7,3.134-7,7c-3.866,0-7,3.134-7,7c0,3.866,3.134,7,7,7c0,3.866,3.134,7,7,7s7-3.134,7-7    c3.866,0,7-3.134,7-7C239,271.134,235.866,268,232,268z M219,268c0-3.309,2.691-6,6-6s6,2.691,6,6c0,0.027-0.004,0.053-0.004,0.08    c-3.06,0.441-5.475,2.855-5.916,5.916c-0.027,0-0.053,0.004-0.08,0.004s-0.053-0.004-0.08-0.004    c-0.441-3.06-2.856-5.475-5.916-5.916C219.004,268.053,219,268.027,219,268z M230.893,269.107    c-0.454,2.422-2.365,4.333-4.787,4.787C226.561,271.471,228.471,269.561,230.893,269.107z M223.893,273.893    c-2.422-0.454-4.333-2.365-4.787-4.787C221.529,269.561,223.439,271.471,223.893,273.893z M218,281c-3.309,0-6-2.691-6-6    s2.691-6,6-6c0.027,0,0.053,0.004,0.08,0.004c0.441,3.06,2.856,5.475,5.916,5.916c0,0.027,0.004,0.053,0.004,0.08    s-0.004,0.053-0.004,0.08c-3.06,0.441-5.475,2.855-5.916,5.916C218.053,280.996,218.027,281,218,281z M223.893,276.107    c-0.454,2.422-2.365,4.333-4.787,4.787C219.561,278.471,221.471,276.561,223.893,276.107z M231,282c0,3.309-2.691,6-6,6    s-6-2.691-6-6c0-0.027,0.004-0.053,0.004-0.08c3.06-0.441,5.475-2.856,5.916-5.916c0.027,0,0.053-0.004,0.08-0.004    s0.053,0.004,0.08,0.004c0.441,3.06,2.856,5.475,5.916,5.916C230.996,281.947,231,281.973,231,282z M226.107,276.107    c2.422,0.454,4.333,2.365,4.787,4.787C228.471,280.439,226.561,278.529,226.107,276.107z M232,281    c-0.027,0-0.053-0.004-0.08-0.004c-0.441-3.06-2.856-5.475-5.916-5.916c0-0.027-0.004-0.053-0.004-0.08s0.004-0.053,0.004-0.08    c3.06-0.441,5.475-2.856,5.916-5.916c0.027,0,0.053-0.004,0.08-0.004c3.309,0,6,2.691,6,6S235.309,281,232,281z"/></g></g><text x="0" y="45" fill="#000000" font-size="5px" font-weight="bold" font-family="'Helvetica Neue', Helvetica, Arial-Unicode, Arial, Sans-serif">Created by Hea Poh Lin</text><text x="0" y="50" fill="#000000" font-size="5px" font-weight="bold" font-family="'Helvetica Neue', Helvetica, Arial-Unicode, Arial, Sans-serif">from the Noun Project</text></svg>